<svg width="24" height="24" viewBox="0 0 24 24" fill="none" xmlns="http://www.w3.org/2000/svg">
<path d="M8.66667 16.8639H18.4162L20.0952 18.144V8.54557H21.0476C21.3002 8.54557 21.5424 8.64295 21.7211 8.81628C21.8997 8.98961 22 9.2247 22 9.46983V21.9474L17.7571 18.7125H9.61905C9.36646 18.7125 9.12422 18.6151 8.94561 18.4417C8.76701 18.2684 8.66667 18.0333 8.66667 17.7882V16.8639ZM6.24286 15.0154L2 18.2503V3.92426C2 3.67913 2.10034 3.44404 2.27895 3.27071C2.45755 3.09738 2.69979 3 2.95238 3H17.2381C17.4907 3 17.7329 3.09738 17.9115 3.27071C18.0901 3.44404 18.1905 3.67913 18.1905 3.92426V15.0154H6.24286Z" fill="#252525"/>
</svg>
