<svg width="24" height="24" viewBox="0 0 24 24" fill="none" xmlns="http://www.w3.org/2000/svg">
<path d="M12 3C7.032 3 3 7.032 3 12C3 16.968 7.032 21 12 21C16.968 21 21 16.968 21 12C21 7.032 16.968 3 12 3ZM12 6.6C13.737 6.6 15.15 8.013 15.15 9.75C15.15 11.487 13.737 12.9 12 12.9C10.263 12.9 8.85 11.487 8.85 9.75C8.85 8.013 10.263 6.6 12 6.6ZM12 19.2C10.173 19.2 8.013 18.462 6.474 16.608C8.05044 15.3711 9.99626 14.6989 12 14.6989C14.0037 14.6989 15.9496 15.3711 17.526 16.608C15.987 18.462 13.827 19.2 12 19.2Z" fill="#252525"/>
</svg>
