<svg width="24" height="24" viewBox="0 0 24 24" fill="none" xmlns="http://www.w3.org/2000/svg">
<path d="M19.2517 2.88739C16.7225 0.370871 12.6039 0.370871 10.0774 2.88739L3.06977 9.85455C3.02413 9.89997 2.99996 9.96141 2.99996 10.0255C2.99996 10.0896 3.02413 10.1511 3.06977 10.1965L4.0605 11.1823C4.10579 11.2271 4.16709 11.2523 4.23099 11.2523C4.2949 11.2523 4.3562 11.2271 4.40148 11.1823L11.4091 4.2151C12.279 3.34955 13.4362 2.87403 14.6659 2.87403C15.8956 2.87403 17.0528 3.34955 17.92 4.2151C18.7899 5.08065 19.2678 6.23205 19.2678 7.45291C19.2678 8.67644 18.7899 9.82516 17.92 10.6907L10.7781 17.7941L9.62094 18.9455C8.53893 20.0221 6.78031 20.0221 5.69829 18.9455C5.17474 18.4246 4.88745 17.7327 4.88745 16.9954C4.88745 16.258 5.17474 15.5661 5.69829 15.0452L12.7838 7.99789C12.9637 7.82157 13.1999 7.72273 13.4523 7.72273H13.455C13.7074 7.72273 13.941 7.82157 14.1182 7.99789C14.298 8.17687 14.3947 8.41196 14.3947 8.66308C14.3947 8.91153 14.2954 9.14661 14.1182 9.32293L8.32682 15.0799C8.28117 15.1253 8.25701 15.1868 8.25701 15.2509C8.25701 15.315 8.28117 15.3765 8.32682 15.4219L9.31755 16.4076C9.36283 16.4525 9.42414 16.4777 9.48804 16.4777C9.55194 16.4777 9.61325 16.4525 9.65853 16.4076L15.4472 10.648C15.9815 10.1164 16.2741 9.41109 16.2741 8.66041C16.2741 7.90973 15.9788 7.20179 15.4472 6.67284C14.3437 5.57487 12.5502 5.57754 11.4467 6.67284L10.7593 7.35941L4.3639 13.7202C3.92983 14.1495 3.58575 14.6603 3.35162 15.223C3.11749 15.7857 2.99796 16.389 2.99996 16.998C2.99996 18.2349 3.48593 19.397 4.3639 20.2706C5.27408 21.1735 6.46618 21.625 7.65828 21.625C8.85037 21.625 10.0425 21.1735 10.95 20.2706L19.2517 12.0158C20.4733 10.7976 21.1499 9.176 21.1499 7.45291C21.1526 5.72715 20.476 4.10557 19.2517 2.88739Z" fill="#252525"/>
</svg>
