<svg width="24" height="24" viewBox="0 0 24 24" fill="none" xmlns="http://www.w3.org/2000/svg">
<path d="M2 4V19.9904C6.02326 20.0363 8.86047 20.6688 11.5814 21.3333V7.41405C9.47442 6.0345 7.37674 4.7214 2 4ZM22 4C16.6233 4.7214 14.5256 6.0345 12.4186 7.41405V21.3333C15.1395 20.6688 17.9767 20.0363 22 19.9904V4ZM21.0279 5.21914L21.0651 8.28945C18.3023 9.0961 15.7395 10.0265 13.2093 10.8561C13.1907 9.89816 13.1767 8.94485 13.1581 7.98696C15.614 6.64865 18.3302 5.78242 21.0279 5.21914ZM3.30279 5.7595C6.13023 6.40574 8.65581 7.16656 10.6093 7.81279L10.6186 8.68361C8.68372 8.04654 5.90698 7.20322 3.11395 6.56157L3.30279 5.7595ZM3.30837 7.89529L4.9814 8.1932L4.83256 9.00902L3.15953 8.71111L3.30837 7.89529ZM5.82791 8.4132L7.33954 8.69736L7.1814 9.50401L5.66977 9.21985L5.82791 8.4132ZM8.30233 8.89444L10.6093 9.33443L10.4512 10.1411L8.14419 9.70109L8.30233 8.89444ZM20.5395 9.8065L20.7814 10.5948L18.1767 11.3694L17.9349 10.5811L20.5395 9.8065ZM2.97302 10.0219C5.63721 10.329 8.27907 10.659 10.5023 11.2456L10.2884 12.0431C8.14884 11.4748 5.53488 11.1448 2.87535 10.8377L2.97302 10.0219ZM16.7023 10.8331L16.9256 11.6306L13.5907 12.5381L13.3674 11.7406L16.7023 10.8331ZM20.7209 11.7956L20.9442 12.5931L19.4186 13.0102L19.1953 12.2127L20.7209 11.7956ZM3.12558 11.869L5.44651 12.1073L5.35349 12.9323L3.03721 12.6848L3.12558 11.869ZM6.70233 12.3181L10.5209 12.8819L10.4 13.6977L6.5814 13.1339L6.70233 12.3181ZM18.2605 12.4877L18.4837 13.2852L13.5116 14.6372L13.2884 13.8397L18.2605 12.4877ZM20.8558 13.5373L21.0698 14.3347L16.3023 15.5539L16.0884 14.7564L20.8558 13.5373ZM2.80651 13.8306C4.19442 13.9727 5.68837 14.1743 6.73488 14.4264V19.5138L2.84651 19.1746C2.83116 17.3918 2.82419 15.6135 2.80651 13.8306ZM7.66977 14.5043L10.5302 14.8481L10.4279 15.6639L7.56744 15.3201L7.66977 14.5043ZM15.1814 15.0451L15.3767 15.8472L13.6186 16.2643L13.4233 15.4622L15.1814 15.0451ZM21.186 15.233L21.2047 19.0005L17.5535 19.468C17.5395 18.3771 17.5349 17.2818 17.5209 16.1909L21.186 15.233ZM7.72093 16.2597L10.5023 16.7089L10.3628 17.5247L7.5814 17.0755L7.72093 16.2597ZM20.3581 16.3055L18.3674 16.8234L18.3814 18.533L20.3674 18.2763L20.3581 16.3055ZM16.5721 16.7547L16.7302 17.5613L13.5256 18.1617L13.3674 17.3551L16.5721 16.7547ZM7.68372 18.0884L10.5953 18.6567L10.4372 19.4634L7.52558 18.8951L7.68372 18.0884ZM16.3628 18.4001L16.5488 19.2067L13.6419 19.8438L13.4558 19.0371L16.3628 18.4001Z" fill="#252525"/>
</svg>
