<svg width="24" height="24" viewBox="0 0 24 24" fill="none" xmlns="http://www.w3.org/2000/svg">
<path d="M18.7376 7.8366L16.1815 5.26286C16.0126 5.09451 15.784 5 15.5457 5C15.3074 5 15.0788 5.09451 14.9099 5.26286L5.84807 14.3277L5.0207 17.9047C4.99216 18.0355 4.99314 18.171 5.02357 18.3013C5.054 18.4316 5.1131 18.5535 5.19657 18.658C5.28004 18.7626 5.38576 18.8471 5.50601 18.9054C5.62626 18.9638 5.75801 18.9945 5.89162 18.9953C5.95388 19.0016 6.01661 19.0016 6.07887 18.9953L9.6888 18.1664L18.7376 9.11038C18.9057 8.94117 19 8.71219 19 8.47349C19 8.2348 18.9057 8.00581 18.7376 7.8366ZM9.25335 17.3812L5.86985 18.0923L6.6406 14.7682L13.4207 8.00237L16.0334 10.6197L9.25335 17.3812ZM16.6169 9.9872L14.0042 7.36984L15.5196 5.86049L18.0888 8.47785L16.6169 9.9872Z" fill="#252525"/>
</svg>
