<svg width="25" height="24" viewBox="0 0 25 24" fill="none" xmlns="http://www.w3.org/2000/svg">
<path d="M12.2434 6.58021L12.6 6.94305L12.9566 6.58021C13.7476 5.7753 15.021 5 16.425 5C18.693 5 20.6 6.89856 20.6 9.68919C20.6 12.5262 19.109 14.7828 17.3007 16.5176C15.6971 18.056 13.8908 19.1406 12.7479 19.8267C12.6973 19.8572 12.6479 19.8868 12.6 19.9156C12.552 19.8868 12.5027 19.8571 12.452 19.8267C11.3092 19.1406 9.5029 18.056 7.89924 16.5176C6.09099 14.7828 4.59998 12.5262 4.59998 9.68919C4.59998 6.90088 6.53711 5 8.77498 5C10.179 5 11.4523 5.7753 12.2434 6.58021Z" stroke="#252525"/>
</svg>
