<svg width="25" height="24" viewBox="0 0 25 24" fill="none" xmlns="http://www.w3.org/2000/svg">
<path d="M20.1887 7.32099C19.9249 6.71025 19.5446 6.1568 19.069 5.69163C18.593 5.22507 18.0319 4.85431 17.416 4.59949C16.7774 4.33422 16.0925 4.19843 15.401 4.20003C14.4308 4.20003 13.4843 4.46568 12.6618 4.96747C12.465 5.08751 12.2781 5.21936 12.1009 5.36301C11.9238 5.21936 11.7369 5.08751 11.5401 4.96747C10.7176 4.46568 9.77105 4.20003 8.80092 4.20003C8.10234 4.20003 7.42541 4.33384 6.78587 4.59949C6.16798 4.85531 5.61109 5.22329 5.13291 5.69163C4.65669 6.15628 4.27627 6.70985 4.01322 7.32099C3.73969 7.95659 3.59998 8.63155 3.59998 9.32619C3.59998 9.98147 3.73379 10.6643 3.99944 11.3589C4.22181 11.9395 4.54059 12.5416 4.94793 13.1497C5.59338 14.1119 6.48086 15.1155 7.58284 16.1329C9.40897 17.8193 11.2174 18.9842 11.2941 19.0315L11.7605 19.3306C11.9671 19.4624 12.2328 19.4624 12.4394 19.3306L12.9058 19.0315C12.9825 18.9823 14.789 17.8193 16.6171 16.1329C17.7191 15.1155 18.6066 14.1119 19.252 13.1497C19.6593 12.5416 19.9801 11.9395 20.2005 11.3589C20.4661 10.6643 20.6 9.98147 20.6 9.32619C20.6019 8.63155 20.4622 7.95659 20.1887 7.32099Z" fill="#252525"/>
</svg>
