<svg width="25" height="24" viewBox="0 0 25 24" fill="none" xmlns="http://www.w3.org/2000/svg">
<path d="M19.3194 6.04902L19.319 6.04863C18.8887 5.62691 18.3815 5.29177 17.8248 5.06145L17.8242 5.06118C17.2467 4.82131 16.6274 4.69852 16.0021 4.69996L16.001 4.69997C15.1223 4.69997 14.2659 4.94053 13.5221 5.39426L13.5221 5.39427C13.3442 5.50282 13.1755 5.62181 13.0159 5.75127L12.7009 6.00674L12.386 5.75127C12.2264 5.62181 12.0577 5.50282 11.8797 5.39427L11.8797 5.39426C11.1359 4.94053 10.2796 4.69997 9.40089 4.69997C8.76727 4.69997 8.1556 4.82111 7.57765 5.06118L7.57711 5.06141C7.01837 5.29273 6.5153 5.62513 6.08274 6.04878L6.08206 6.04945C5.65267 6.4684 5.30966 6.96754 5.07247 7.51857L19.3194 6.04902ZM19.3194 6.04902C19.7484 6.46871 20.0916 6.96803 20.3296 7.51904L19.3194 6.04902ZM8.52198 15.7654L8.52204 15.7655C9.41778 16.5927 10.3111 17.2937 10.9909 17.7942C11.3304 18.0441 11.6157 18.2433 11.82 18.3824C11.9222 18.452 12.004 18.5064 12.0621 18.5446C12.0912 18.5637 12.1142 18.5787 12.1307 18.5893C12.1485 18.6008 12.1562 18.6056 12.1562 18.6056L12.1641 18.6105L12.164 18.6105L12.6294 18.909C12.6295 18.9091 12.6296 18.9091 12.6297 18.9092C12.6721 18.9361 12.7276 18.9361 12.7701 18.9092C12.7702 18.9092 12.7703 18.9091 12.7704 18.909L13.2358 18.6105L13.2359 18.6105C13.3028 18.5676 15.0812 17.4228 16.878 15.7653L8.52198 15.7654ZM8.52198 15.7654C7.44066 14.7671 6.58151 13.7929 5.96331 12.8713M8.52198 15.7654L5.96331 12.8713M5.96331 12.8713C5.57337 12.2892 5.27332 11.7203 5.06643 11.1803L5.96331 12.8713ZM4.69995 9.32613C4.69995 8.69965 4.82573 8.09194 5.07245 7.51861L5.06634 11.18C4.81974 10.5351 4.69995 9.91288 4.69995 9.32613Z" stroke="#252525"/>
</svg>
