<svg width="24" height="24" viewBox="0 0 24 24" fill="none" xmlns="http://www.w3.org/2000/svg">
<path d="M12.1904 4C14.7059 4 17.035 5.116 18.5795 6.9952C18.6235 7.04847 18.6564 7.11004 18.6761 7.17627C18.6958 7.24249 18.702 7.312 18.6943 7.38067C18.6867 7.44934 18.6652 7.51576 18.6314 7.57597C18.5975 7.63619 18.5518 7.68898 18.4972 7.7312C18.3858 7.81848 18.2449 7.85895 18.1042 7.84401C17.9635 7.82908 17.8342 7.75991 17.7437 7.6512C17.0683 6.83298 16.2198 6.1749 15.2593 5.72445C14.2989 5.27401 13.2504 5.04242 12.1896 5.0464C8.25836 5.0464 5.07099 8.16 5.07099 12C5.07099 15.84 8.25836 18.9536 12.1896 18.9536C13.2657 18.9577 14.3289 18.7194 15.3004 18.2565C16.2718 17.7935 17.1266 17.1177 17.8013 16.2792C17.8903 16.1694 18.0186 16.0985 18.1589 16.0816C18.2992 16.0648 18.4406 16.1032 18.5531 16.1888C18.6083 16.2303 18.6546 16.2825 18.6892 16.3422C18.7238 16.4019 18.7461 16.468 18.7546 16.5365C18.7632 16.605 18.758 16.6746 18.7391 16.741C18.7203 16.8074 18.6884 16.8694 18.6451 16.9232C17.103 18.8512 14.7427 20 12.1904 20C7.66568 20 4 16.4184 4 12C4 7.5816 7.66648 4 12.1904 4ZM17.6757 9.728L19.8401 11.8936C20.0497 12.1024 20.0536 12.4376 19.8497 12.6424L17.7349 14.7568C17.6346 14.855 17.4993 14.9093 17.3589 14.9078C17.2185 14.9063 17.0845 14.8491 16.9862 14.7488C16.9364 14.7002 16.8966 14.6422 16.8692 14.5782C16.8418 14.5142 16.8273 14.4454 16.8264 14.3758C16.8256 14.3062 16.8385 14.2371 16.8644 14.1725C16.8904 14.1078 16.9288 14.049 16.9775 13.9992L18.2148 12.7616H9.96843C9.89889 12.7624 9.82987 12.7496 9.76531 12.7237C9.70074 12.6979 9.6419 12.6596 9.59213 12.611C9.54237 12.5624 9.50266 12.5045 9.47528 12.4406C9.44789 12.3767 9.43337 12.308 9.43253 12.2384C9.43253 11.9488 9.67249 11.7144 9.96843 11.7144H18.182L16.9359 10.468C16.8354 10.3699 16.7781 10.2358 16.7764 10.0954C16.7748 9.955 16.829 9.81967 16.9271 9.7192C17.0275 9.62109 17.1628 9.5669 17.3032 9.56855C17.4436 9.5702 17.5776 9.62756 17.6757 9.728Z" fill="#252525"/>
</svg>
