<svg width="24" height="24" viewBox="0 0 24 24" fill="none" xmlns="http://www.w3.org/2000/svg">
<path d="M11.2123 22.5561C5.12915 13.5052 4 12.5763 4 9.25C4 4.69364 7.59893 1 12.0385 1C16.478 1 20.0769 4.69364 20.0769 9.25C20.0769 12.5763 18.9478 13.5052 12.8646 22.5561C12.4654 23.148 11.6115 23.1479 11.2123 22.5561ZM12.0385 12.6875C13.8883 12.6875 15.3878 11.1485 15.3878 9.25C15.3878 7.35151 13.8883 5.8125 12.0385 5.8125C10.1887 5.8125 8.6891 7.35151 8.6891 9.25C8.6891 11.1485 10.1887 12.6875 12.0385 12.6875Z" fill="#929292"/>
</svg>
