<svg width="103.5" height="105" viewBox="0 0 69 70" fill="none" xmlns="http://www.w3.org/2000/svg">
<g filter="url(#filter0_d_575_2863)">
<circle cx="34.5" cy="30.5" r="30.5" fill="white"/>
<circle cx="34.5" cy="30.5" r="29.5" stroke="#1A308E" stroke-width="2"/>
</g>
<path fill-rule="evenodd" clip-rule="evenodd" d="M21.364 25.2821C20.9533 25.3751 20.526 25.4242 20.0871 25.4242C19.8081 25.4242 19.5338 25.4044 19.2654 25.366V47.6349C19.2654 48.2843 19.5233 48.907 19.9825 49.3662C20.4417 49.8254 21.0644 50.0833 21.7138 50.0833H49.6958C50.3452 50.0833 50.9679 49.8254 51.4271 49.3662C51.8863 48.907 52.1442 48.2843 52.1442 47.6349V19.6529C52.1442 19.0035 51.8863 18.3808 51.4271 17.9216C50.9679 17.4624 50.3452 17.2045 49.6958 17.2045H25.2872C25.5926 17.8474 25.7823 18.5559 25.8294 19.3031H26.2609V47.9847H21.7138C21.621 47.9847 21.5321 47.9478 21.4665 47.8822C21.4009 47.8166 21.364 47.7277 21.364 47.6349V25.2821ZM44.8414 31.5877C45.0382 31.3909 45.1487 31.124 45.1487 30.8457C45.1487 30.5674 45.0382 30.3005 44.8414 30.1037C44.6446 29.9069 44.3777 29.7964 44.0994 29.7964H32.9066C32.6283 29.7964 32.3614 29.9069 32.1646 30.1037C31.9678 30.3005 31.8573 30.5674 31.8573 30.8457C31.8573 31.124 31.9678 31.3909 32.1646 31.5877C32.3614 31.7845 32.6283 31.895 32.9066 31.895H44.0994C44.3777 31.895 44.6446 31.7845 44.8414 31.5877ZM32.9066 35.3928H44.0994C44.3777 35.3928 44.6446 35.5033 44.8414 35.7001C45.0382 35.8969 45.1487 36.1638 45.1487 36.4421C45.1487 36.7204 45.0382 36.9873 44.8414 37.1841C44.6446 37.3809 44.3777 37.4914 44.0994 37.4914H32.9066C32.6283 37.4914 32.3614 37.3809 32.1646 37.1841C31.9678 36.9873 31.8573 36.7204 31.8573 36.4421C31.8573 36.1638 31.9678 35.8969 32.1646 35.7001C32.3614 35.5033 32.6283 35.3928 32.9066 35.3928ZM49.9431 19.4056C50.0087 19.4712 50.0456 19.5601 50.0456 19.6529V47.6349C50.0456 47.7277 50.0087 47.8166 49.9431 47.8822C49.8775 47.9478 49.7886 47.9847 49.6958 47.9847H28.3595V19.3031H49.6958C49.7886 19.3031 49.8775 19.34 49.9431 19.4056Z" fill="black"/>
<path d="M7 58H31L34 55L37 58H61V70H7V58Z" fill="#DBDEE9"/>
<path d="M14.5524 61.0043L13.1425 60.6638C12.8985 61.8809 12.302 63.3532 11.4343 64.3404C10.63 65.2596 9.40989 66.1021 8 66.5532L9.0303 67.5489C10.4221 67.0213 11.6874 65.983 12.4556 65.0809C13.1877 64.2213 13.7751 62.9362 14.1547 61.9574C14.2632 61.6851 14.3897 61.3106 14.5524 61.0043Z" fill="#252525"/>
<path d="M16.8841 63.2936V64.6298C17.2185 64.6043 17.824 64.5872 18.3392 64.5872H23.1924C23.572 64.5872 24.033 64.6213 24.2499 64.6298V63.2936C24.0149 63.3106 23.6172 63.3447 23.1924 63.3447H18.3392C17.8692 63.3447 17.2095 63.3191 16.8841 63.2936Z" fill="#252525"/>
<path d="M27.9282 66.417C27.9282 66.7574 27.8921 67.2681 27.8379 67.6085H29.2477C29.2116 67.2596 29.1664 66.6638 29.1664 66.417V64.0085C30.1425 64.3234 31.4981 64.817 32.429 65.2766L32.9442 64.1021C32.1127 63.7191 30.3775 63.1149 29.1664 62.783V61.5234C29.1664 61.1745 29.2116 60.8 29.2477 60.5021H27.8379C27.9011 60.8 27.9282 61.2255 27.9282 61.5234V66.417Z" fill="#252525"/>
<path d="M38.177 61.2851V62.3745C39.3158 62.4766 40.9516 62.4681 42.0633 62.3745V61.2766C41.0872 61.3872 39.2887 61.4298 38.177 61.2851ZM38.9001 64.9191L37.8607 64.8255C37.7613 65.2596 37.7071 65.6 37.7071 65.9319C37.7071 66.8085 38.4572 67.3277 40.0117 67.3277C41.033 67.3277 41.756 67.2681 42.3434 67.166L42.3254 66.017C41.53 66.1702 40.8612 66.2383 40.0569 66.2383C39.135 66.2383 38.7916 66.0085 38.7916 65.634C38.7916 65.4043 38.8277 65.2 38.9001 64.9191ZM36.7852 60.7149L35.5199 60.6128C35.5109 60.8851 35.4567 61.2085 35.4296 61.4468C35.3301 62.1021 35.05 63.5404 35.05 64.817C35.05 65.9745 35.2217 67.0128 35.4024 67.6L36.4508 67.5319C36.4418 67.4128 36.4327 67.2766 36.4327 67.183C36.4327 67.0979 36.4508 66.9106 36.4779 66.783C36.5774 66.3319 36.8756 65.4043 37.1287 64.6979L36.5683 64.2809C36.4418 64.5617 36.2972 64.8596 36.1616 65.1489C36.1345 64.9787 36.1255 64.7574 36.1255 64.5957C36.1255 63.7447 36.4418 62.0426 36.5593 61.4723C36.5954 61.3191 36.7129 60.8936 36.7852 60.7149Z" fill="#252525"/>
<path d="M49.664 65.8809V66.1872H45.7959V65.8809H49.664ZM45.7959 67.1064V66.7745H49.664V67.1064H45.7959ZM44.7565 68H45.7959V67.7447H49.664V67.9915H50.7485V65.234H44.7565V68ZM48.1818 62.1362H49.6369V62.4596H48.1818V62.1362ZM48.1818 61.1234H49.6369V61.4383H48.1818V61.1234ZM50.7033 63.0468V62.1362H51.7337V61.4383H50.7033V60.5362H48.1818V60H47.1063V60.5362H44.5577V61.1234H47.1063V61.4383H43.6358V62.1362H47.1063V62.4596H44.4583V63.0468H47.1063V63.3447H44.2594V63.9574H47.1063V64.2638H43.6268V64.9702H51.7337V64.2638H48.1818V63.9574H51.0739V63.3447H48.1818V63.0468H50.7033Z" fill="#252525"/>
<path d="M58.8373 61.0979L57.7799 60.2213C57.6353 60.4255 57.3461 60.6979 57.084 60.9447C56.4785 61.4979 55.2403 62.4426 54.5263 62.9872C53.6225 63.7021 53.5502 64.1532 54.454 64.8766C55.2764 65.5404 56.605 66.6043 57.1563 67.1404C57.4274 67.3957 57.6895 67.6681 57.9426 67.9319L59 67.0213C58.0782 66.1787 56.361 64.9021 55.6831 64.366C55.1951 63.966 55.1861 63.8723 55.6651 63.4809C56.2706 62.9957 57.4636 62.1277 58.051 61.6851C58.2589 61.5234 58.5571 61.3021 58.8373 61.0979Z" fill="#252525"/>
<path d="M26 19.5C26 23.0898 23.0898 26 19.5 26C15.9102 26 13 23.0898 13 19.5C13 15.9102 15.9102 13 19.5 13C23.0898 13 26 15.9102 26 19.5ZM20.0909 15.3636C20.0909 15.2069 20.0287 15.0566 19.9178 14.9458C19.807 14.835 19.6567 14.7727 19.5 14.7727C19.3433 14.7727 19.193 14.835 19.0822 14.9458C18.9713 15.0566 18.9091 15.2069 18.9091 15.3636V18.9091H15.3636C15.2069 18.9091 15.0566 18.9713 14.9458 19.0822C14.835 19.193 14.7727 19.3433 14.7727 19.5C14.7727 19.6567 14.835 19.807 14.9458 19.9178C15.0566 20.0287 15.2069 20.0909 15.3636 20.0909H18.9091V23.6364C18.9091 23.7931 18.9713 23.9434 19.0822 24.0542C19.193 24.165 19.3433 24.2273 19.5 24.2273C19.6567 24.2273 19.807 24.165 19.9178 24.0542C20.0287 23.9434 20.0909 23.7931 20.0909 23.6364V20.0909H23.6364C23.7931 20.0909 23.9434 20.0287 24.0542 19.9178C24.165 19.807 24.2273 19.6567 24.2273 19.5C24.2273 19.3433 24.165 19.193 24.0542 19.0822C23.9434 18.9713 23.7931 18.9091 23.6364 18.9091H20.0909V15.3636Z" fill="black"/>
<defs>
<filter id="filter0_d_575_2863" x="0" y="0" width="69" height="69" filterUnits="userSpaceOnUse" color-interpolation-filters="sRGB">
<feFlood flood-opacity="0" result="BackgroundImageFix"/>
<feColorMatrix in="SourceAlpha" type="matrix" values="0 0 0 0 0 0 0 0 0 0 0 0 0 0 0 0 0 0 127 0" result="hardAlpha"/>
<feOffset dy="4"/>
<feGaussianBlur stdDeviation="2"/>
<feComposite in2="hardAlpha" operator="out"/>
<feColorMatrix type="matrix" values="0 0 0 0 0 0 0 0 0 0 0 0 0 0 0 0 0 0 0.1 0"/>
<feBlend mode="normal" in2="BackgroundImageFix" result="effect1_dropShadow_575_2863"/>
<feBlend mode="normal" in="SourceGraphic" in2="effect1_dropShadow_575_2863" result="shape"/>
</filter>
</defs>
</svg>
