<svg width="69" height="70" viewBox="0 0 69 70" fill="none" xmlns="http://www.w3.org/2000/svg">
<g filter="url(#filter0_d_575_2653)">
<circle cx="34.5" cy="30.5" r="30.5" fill="white"/>
<circle cx="34.5" cy="30.5" r="29.5" stroke="#1A308E" stroke-width="2"/>
</g>
<path d="M26 19.5C26 23.0898 23.0898 26 19.5 26C15.9102 26 13 23.0898 13 19.5C13 15.9102 15.9102 13 19.5 13C23.0898 13 26 15.9102 26 19.5ZM20.0909 15.3636C20.0909 15.2069 20.0287 15.0566 19.9178 14.9458C19.807 14.835 19.6567 14.7727 19.5 14.7727C19.3433 14.7727 19.193 14.835 19.0822 14.9458C18.9713 15.0566 18.9091 15.2069 18.9091 15.3636V18.9091H15.3636C15.2069 18.9091 15.0566 18.9713 14.9458 19.0822C14.835 19.193 14.7727 19.3433 14.7727 19.5C14.7727 19.6567 14.835 19.807 14.9458 19.9178C15.0566 20.0287 15.2069 20.0909 15.3636 20.0909H18.9091V23.6364C18.9091 23.7931 18.9713 23.9434 19.0822 24.0542C19.193 24.165 19.3433 24.2273 19.5 24.2273C19.6567 24.2273 19.807 24.165 19.9178 24.0542C20.0287 23.9434 20.0909 23.7931 20.0909 23.6364V20.0909H23.6364C23.7931 20.0909 23.9434 20.0287 24.0542 19.9178C24.165 19.807 24.2273 19.6567 24.2273 19.5C24.2273 19.3433 24.165 19.193 24.0542 19.0822C23.9434 18.9713 23.7931 18.9091 23.6364 18.9091H20.0909V15.3636Z" fill="black"/>
<path fill-rule="evenodd" clip-rule="evenodd" d="M21.364 25.2821C20.9533 25.3751 20.526 25.4242 20.0871 25.4242C19.8081 25.4242 19.5338 25.4044 19.2654 25.366V47.6349C19.2654 48.2843 19.5233 48.907 19.9825 49.3662C20.4417 49.8254 21.0644 50.0833 21.7138 50.0833H49.6958C50.3452 50.0833 50.9679 49.8254 51.4271 49.3662C51.8863 48.907 52.1442 48.2843 52.1442 47.6349V19.6529C52.1442 19.0035 51.8863 18.3808 51.4271 17.9216C50.9679 17.4624 50.3452 17.2045 49.6958 17.2045H25.2872C25.5926 17.8474 25.7823 18.5559 25.8294 19.3031H26.2609V47.9847H21.7138C21.621 47.9847 21.5321 47.9478 21.4665 47.8822C21.4009 47.8166 21.364 47.7277 21.364 47.6349V25.2821ZM44.8414 31.5877C45.0382 31.3909 45.1487 31.124 45.1487 30.8457C45.1487 30.5674 45.0382 30.3005 44.8414 30.1037C44.6446 29.9069 44.3777 29.7964 44.0994 29.7964H32.9066C32.6283 29.7964 32.3614 29.9069 32.1646 30.1037C31.9678 30.3005 31.8573 30.5674 31.8573 30.8457C31.8573 31.124 31.9678 31.3909 32.1646 31.5877C32.3614 31.7845 32.6283 31.895 32.9066 31.895H44.0994C44.3777 31.895 44.6446 31.7845 44.8414 31.5877ZM32.9066 35.3928H44.0994C44.3777 35.3928 44.6446 35.5033 44.8414 35.7001C45.0382 35.8969 45.1487 36.1638 45.1487 36.4421C45.1487 36.7204 45.0382 36.9873 44.8414 37.1841C44.6446 37.3809 44.3777 37.4914 44.0994 37.4914H32.9066C32.6283 37.4914 32.3614 37.3809 32.1646 37.1841C31.9678 36.9873 31.8573 36.7204 31.8573 36.4421C31.8573 36.1638 31.9678 35.8969 32.1646 35.7001C32.3614 35.5033 32.6283 35.3928 32.9066 35.3928ZM49.9431 19.4056C50.0087 19.4712 50.0456 19.5601 50.0456 19.6529V47.6349C50.0456 47.7277 50.0087 47.8166 49.9431 47.8822C49.8775 47.9478 49.7886 47.9847 49.6958 47.9847H28.3595V19.3031H49.6958C49.7886 19.3031 49.8775 19.34 49.9431 19.4056Z" fill="black"/>
<defs>
<filter id="filter0_d_575_2653" x="0" y="0" width="69" height="69" filterUnits="userSpaceOnUse" color-interpolation-filters="sRGB">
<feFlood flood-opacity="0" result="BackgroundImageFix"/>
<feColorMatrix in="SourceAlpha" type="matrix" values="0 0 0 0 0 0 0 0 0 0 0 0 0 0 0 0 0 0 127 0" result="hardAlpha"/>
<feOffset dy="4"/>
<feGaussianBlur stdDeviation="2"/>
<feComposite in2="hardAlpha" operator="out"/>
<feColorMatrix type="matrix" values="0 0 0 0 0 0 0 0 0 0 0 0 0 0 0 0 0 0 0.1 0"/>
<feBlend mode="normal" in2="BackgroundImageFix" result="effect1_dropShadow_575_2653"/>
<feBlend mode="normal" in="SourceGraphic" in2="effect1_dropShadow_575_2653" result="shape"/>
</filter>
</defs>
</svg>
