<svg fill="none" height="24" viewBox="0 0 24 24" width="24" xmlns="http://www.w3.org/2000/svg"><path d="m17.7447 10.2979c0 .1693-.0673.3316-.187.4513s-.282.187-.4513.187h-6.8085c-.1693 0-.33167-.0673-.45137-.187-.11971-.1197-.18696-.282-.18696-.4513s.06725-.33167.18696-.45137c.1197-.11971.28207-.18696.45137-.18696h6.8085c.1693 0 .3316.06725.4513.18696.1197.1197.187.28207.187.45137zm-.6383 2.7659h-6.8085c-.1693 0-.33167.0673-.45137.187-.11971.1197-.18696.282-.18696.4513s.06725.3317.18696.4514c.1197.1197.28207.1869.45137.1869h6.8085c.1693 0 .3316-.0672.4513-.1869s.187-.2821.187-.4514-.0673-.3316-.187-.4513-.282-.187-.4513-.187zm4.8936-9.57444v17.02124c0 .395-.1569.7739-.4362 1.0532s-.6582.4362-1.0532.4362h-17.02124c-.395 0-.77383-.1569-1.05314-.4362s-.43622-.6582-.43622-1.0532v-17.02124c0-.395.15691-.77383.43622-1.05314s.65814-.43622 1.05314-.43622h17.02124c.395 0 .7739.15691 1.0532.43622s.4362.65814.4362 1.05314zm-18.51064 17.23404h2.76596v-17.4468h-2.76596c-.05643 0-.11055.02241-.15045.06231s-.06231.09402-.06231.15045v17.02124c0 .0565.02241.1106.06231.1505s.09402.0623.15045.0623zm17.23404-17.23404c0-.05643-.0224-.11055-.0623-.15045s-.094-.06231-.1505-.06231h-12.97868v17.4468h12.97868c.0565 0 .1106-.0224.1505-.0623s.0623-.094.0623-.1505z" fill="#252525"/></svg>