<svg width="24" height="24" viewBox="0 0 24 24" fill="none" xmlns="http://www.w3.org/2000/svg">
<path d="M20.8672 18.0072C20.2779 17.4819 19.762 16.8796 19.3333 16.2167C18.8654 15.3016 18.5849 14.3022 18.5083 13.2772V10.2583C18.5124 8.64842 17.9284 7.09245 16.8661 5.88276C15.8038 4.67306 14.3364 3.89291 12.7394 3.68888V2.90055C12.7394 2.68418 12.6535 2.47667 12.5005 2.32367C12.3475 2.17067 12.14 2.08472 11.9236 2.08472C11.7072 2.08472 11.4997 2.17067 11.3467 2.32367C11.1937 2.47667 11.1078 2.68418 11.1078 2.90055V3.70111C9.52516 3.91984 8.07543 4.70471 7.0271 5.91034C5.97878 7.11597 5.40289 8.66067 5.40611 10.2583V13.2772C5.32958 14.3022 5.04909 15.3016 4.58111 16.2167C4.15999 16.8781 3.65234 17.4803 3.07167 18.0072C3.00648 18.0645 2.95424 18.135 2.91841 18.214C2.88259 18.293 2.864 18.3788 2.86389 18.4656V19.2967C2.86389 19.4587 2.92828 19.6142 3.04288 19.7288C3.15749 19.8434 3.31293 19.9078 3.475 19.9078H20.4639C20.626 19.9078 20.7814 19.8434 20.896 19.7288C21.0106 19.6142 21.075 19.4587 21.075 19.2967V18.4656C21.0749 18.3788 21.0563 18.293 21.0205 18.214C20.9847 18.135 20.9324 18.0645 20.8672 18.0072ZM4.135 18.6856C4.70359 18.1363 5.2042 17.5208 5.62611 16.8522C6.2156 15.747 6.55954 14.5276 6.63445 13.2772V10.2583C6.61021 9.54213 6.73035 8.82837 6.9877 8.15957C7.24505 7.49076 7.63435 6.88058 8.13243 6.36537C8.63051 5.85015 9.22717 5.44043 9.88689 5.16061C10.5466 4.88078 11.2559 4.73658 11.9725 4.73658C12.6891 4.73658 13.3984 4.88078 14.0581 5.16061C14.7178 5.44043 15.3145 5.85015 15.8126 6.36537C16.3107 6.88058 16.7 7.49076 16.9573 8.15957C17.2147 8.82837 17.3348 9.54213 17.3106 10.2583V13.2772C17.3855 14.5276 17.7294 15.747 18.3189 16.8522C18.7408 17.5208 19.2414 18.1363 19.81 18.6856H4.135Z" fill="#252525"/>
<path d="M12 21.9489C12.3849 21.94 12.7543 21.7953 13.0429 21.5403C13.3314 21.2853 13.5205 20.9365 13.5766 20.5555H10.3622C10.4199 20.9468 10.6178 21.3039 10.9191 21.5602C11.2204 21.8165 11.6045 21.9546 12 21.9489V21.9489Z" fill="#252525"/>
</svg>
